<?xml version="1.0" encoding="UTF-8"?>
<svg id="Layer_1" data-name="Layer 1" xmlns="http://www.w3.org/2000/svg" viewBox="0 0 141.031 200">
  <defs>
    <style>
      .cls-1 {
        fill: #323232;
      }

      .cls-2 {
        fill: #fc5903;
      }
    </style>
  </defs>
  <path class="cls-2" d="m139,0c1.541,1.663,2.035,3.573,2.031,5.879-.067,38.607.018,77.214-.085,115.821-.042,15.829-10.942,26.387-26.878,26.395-35.944.018-71.889.006-107.833.009-2.146,0-4.33.246-6.235-1.104V20C3.989,9.654,11.109,2.753,22,0h117Zm-3.42,79.17c-.017,0-.033,0-.05,0,0-8.5.158-17.003-.041-25.499-.238-10.143.022-20.351-2.558-30.301-2.096-8.083-6.927-13.44-15.222-15.54-5.873-1.487-11.838-1.905-17.837-1.922-24.666-.067-49.333-.113-73.998-.041-11.636.034-20.336,7.985-20.392,19.526-.143,29.328-.879,58.675.667,87.981,1.1,20.853,7.893,27.71,28.441,28.889,26.138,1.499,52.317.422,78.477.589,14.463.092,22.453-8.061,22.502-22.683.046-13.666.01-27.333.01-40.999Z"/>
  <path class="cls-1" d="m0,161c1.552-1.565,3.12-3.143,5.61-1.971,2.4,1.129,2.431,3.335,2.426,5.543-.007,3.297-.002,6.594-.002,10.168h17.278c1.255-4.793-.591-9.904,1.096-14.482,1.998-2.014,3.924-2.023,5.871-.628,1.402,1.618,1.327,3.481,1.33,5.303.015,9.484-.036,18.968.036,28.451.02,2.633-.48,4.923-2.646,6.616h-3c-4.772-5.385-.655-12.224-2.868-18.089H8.043c0,2.306.066,4.272-.014,6.232-.165,4.035.933,8.298-2.029,11.857H2c-.174-1.159-.887-1.78-2-2v-37Z"/>
  <path class="cls-1" d="m81,200c-1.34-2.117-2.038-4.327-1.958-6.935.179-5.805.061-11.619.053-17.429-.002-1.831-.124-3.684,1.642-5.351,3.207-1.473,4.78.445,5.739,3.931,3.202-3.717,6.984-4.95,11.408-4.258,3.213.503,6.108,2.185,6.684,5.219,1.566,8.249,2.473,16.619-.569,24.823h-4c-1.722-2.76-1.788-5.806-1.894-8.959-.164-4.88,1.156-9.952-1.226-14.488-6.144-2.352-9.716-.292-10.169,5.83-.281,3.803-.243,7.631-.27,11.449-.017,2.398-.291,4.64-2.441,6.168h-3Z"/>
  <path class="cls-1" d="m130,200c-3.385-2.396-4.425-5.773-4.316-9.766.121-4.474.028-8.954.028-13.434-1.461-1.508-5.141-1.177-3.806-4.709.663-1.615,2.759-1.072,3.595-2.41.791-2.972-.816-6.369,1.519-9.042,5.445-1.31,5.522-1.195,6.215,9.215,1.708,1.488,5.847-.276,5.637,3.901-1.1,2.662-3.833,1.561-5.408,2.493v17.685h6.585c2.522,3.464-.423,4.51-2.049,6.066h-8Z"/>
  <path class="cls-1" d="m55,200c-1.291-1.938-2.028-3.942-1.952-6.402.184-5.973.068-11.956.056-17.935-.004-2.01-.129-4.042,1.924-5.454,1.357-.575,2.77-.594,4.685.927,1.382,6.314.364,13.274.595,20.155.104,3.083.667,6.396-2.308,8.71h-3Z"/>
  <path class="cls-1" d="m59.183,159.68c1.275,1.525,1.207,2.934.66,4.517-1.567,1.781-3.416,2.312-5.493.706-1.338-1.035-1.659-2.521-.813-3.945,1.304-2.196,3.233-2.55,5.647-1.277Z"/>
  <path class="cls-1" d="m56.356,130.771c-12.135.218-21.497-9.281-21.557-21.422-.099-19.81-.007-39.621-.062-59.431-.006-2.031.985-4.397-1.856-5.682,1.33-1.235,2.265-2.104,2.98-2.767,1.184-5.853-1.743-11.753,2.3-17.419q6.789-5.082,14.409.156c1.03,1.465-.071,4.29,2.09,4.838-.105,5.459-2.567,10.627,1.698,14.325v87.402Zm-12.943-99.456v9.349c1.172.413,2.185.762,3.408-.157v-9.102c-1.117-.727-2.065-.516-3.408-.089Zm9.225,8.835c-.019-2.78.419-5.873-.304-8.873-1.137-.386-2.076-.61-3.245.167-.062,3.086-.46,6.321.282,9.509,1.196.098,2.204.436,3.267-.803Zm-14.515-8.781v9.331c1.25.529,2.16.567,3.116-.272v-8.926c-1.106-.734-2.001-.79-3.116-.132Zm7.11,17.858c-2.293,1.182-2.38,2.905-1.535,5.199,1.055.005,2.148.716,3.163-.53.113-1.532.778-3.247-1.629-4.669Zm-1.938,15.732c1.461-.105,2.561.629,3.726-.731-.33-1.276.759-3.082-1.41-4.229-2.88.261-2.337,2.444-2.316,4.959Zm2.27,5.536c-2.83.863-2.554,2.705-2.005,4.684,1.134.641,2.158.844,3.216-.018.278-1.611.785-3.23-1.211-4.666Z"/>
  <path class="cls-2" d="m87.238,132.736v-38.254h-27.915v-21.491c9.066,0,18.305.1,27.541-.046,4.144-.065,7.911.945,11.438,2.937,6.221,3.514,10.001,8.4,9.724,16.058-.3,8.308.051,16.637-.097,24.952-.157,8.804-11.522,17.613-20.691,15.843Z"/>
  <path class="cls-2" d="m86.9,26.939c-5.822,2.405-12.144,2.318-18.468,2.292,5.967-1.385,11.933-2.769,17.9-4.154.189.62.379,1.241.568,1.861Z"/>
  <path class="cls-2" d="m76.452,40.244c-4.31-1.454-8.621-2.908-12.931-4.362,4.712.399,9.693-.141,13.704,2.571-.258.597-.515,1.194-.773,1.791Z"/>
  <path class="cls-2" d="m63.913,30.302c.78-.034,1.561-.069,2.341-.103.004.124.008.248.012.373h-2.349l-.004-.269Z"/>
</svg>